<svg width="16" height="13" viewBox="0 0 16 13" fill="none" xmlns="http://www.w3.org/2000/svg">
<path d="M11.75 0C13.8208 0 15.5 1.67925 15.5 3.75C15.5 5.82075 13.8208 7.5 11.75 7.5C11.522 7.5 11.2978 7.47975 11.081 7.44L9.09276 8.93175C9.11376 9.0765 9.12501 9.22425 9.12501 9.375C9.12501 11.0325 7.78251 12.375 6.12501 12.375C4.46751 12.375 3.12501 11.0325 3.12501 9.375C3.12501 9.24225 3.13401 9.111 3.15051 8.982L0.281006 7.8225L0.843506 6.432L3.71301 7.59075C4.25976 6.8535 5.13651 6.375 6.12501 6.375C6.24726 6.375 6.36726 6.3825 6.48501 6.39675L8.01651 4.101C8.00526 3.9855 8.00001 3.8685 8.00001 3.75C8.00001 1.67925 9.67926 0 11.75 0ZM6.12501 7.875C5.77701 7.875 5.45601 7.9935 5.20176 8.193L6.40626 8.67975C6.79026 8.835 6.97626 9.27225 6.82026 9.65625C6.66501 10.0402 6.22776 10.2262 5.84376 10.0702L4.64001 9.585C4.74201 10.314 5.36826 10.8757 6.12576 10.8757C6.95451 10.8757 7.62576 10.2045 7.62576 9.37575C7.62576 8.547 6.95451 7.87575 6.12576 7.87575L6.12501 7.875ZM8.64801 5.8575L7.91076 6.9645C8.12376 7.122 8.31576 7.308 8.47926 7.51575L9.49926 6.75075C9.16926 6.50175 8.88051 6.1995 8.64801 5.8575ZM11.75 1.5C10.5073 1.5 9.50001 2.50725 9.50001 3.75C9.50001 4.99275 10.5073 6 11.75 6C12.9928 6 14 4.99275 14 3.75C14 2.50725 12.9928 1.5 11.75 1.5ZM11.75 2.25C12.5788 2.25 13.25 2.92125 13.25 3.75C13.25 4.57875 12.5788 5.25 11.75 5.25C10.9213 5.25 10.25 4.57875 10.25 3.75C10.25 2.92125 10.9213 2.25 11.75 2.25Z" fill="white"/>
</svg>
