<svg width="20" height="19" viewBox="0 0 20 19" fill="none" xmlns="http://www.w3.org/2000/svg">
<path d="M15.457 0L19 0.00300002L19.002 3.526L13.535 8.992L16.363 11.821L17.778 10.407L19.192 11.821L16.718 14.296L19.546 17.125L18.132 18.539L15.303 15.71L12.828 18.185L11.414 16.771L12.828 15.356L9.99899 12.528L7.17099 15.356L8.58599 16.771L7.17199 18.185L4.69699 15.71L1.86799 18.539L0.453995 17.125L3.28299 14.295L0.807995 11.821L2.22199 10.407L3.63599 11.82L6.463 8.992L1.00299 3.532L0.999995 0L4.54599 0.00300002L9.99899 5.457L15.457 0ZM7.87699 10.406L5.04999 13.234L5.75799 13.941L8.585 11.113L7.878 10.406H7.87699ZM17.001 2.001H16.284L11.414 6.87L12.12 7.577L17.001 2.698V2.001ZM3.00099 2.001V2.701L14.242 13.942L14.949 13.235L3.71599 2.002L3.00099 2.001Z" fill="white"/>
</svg>
