<svg width="18" height="20" viewBox="0 0 18 20" fill="none" xmlns="http://www.w3.org/2000/svg">
<path d="M10 5.16123e-06C11.4822 -0.00150219 12.9462 0.327177 14.2856 0.962167C15.6249 1.59716 16.806 2.52251 17.743 3.67101L11.414 10L17.743 16.329C16.806 17.4775 15.6249 18.4029 14.2856 19.0378C12.9462 19.6728 11.4822 20.0015 10 20C4.477 20 0 15.523 0 10C0 4.47701 4.477 5.16123e-06 10 5.16123e-06ZM10 2.00001C8.73793 2.00023 7.49381 2.29905 6.36931 2.87205C5.24481 3.44505 4.27183 4.27596 3.52988 5.29691C2.78792 6.31786 2.29804 7.49986 2.10026 8.74634C1.90248 9.99282 2.00242 11.2684 2.39191 12.4689C2.7814 13.6693 3.44938 14.7606 4.34128 15.6536C5.23319 16.5465 6.3237 17.2158 7.52372 17.6066C8.72373 17.9975 9.9992 18.0989 11.2459 17.9026C12.4926 17.7063 13.6752 17.2178 14.697 16.477L14.905 16.32L8.585 10L14.905 3.67901L14.697 3.52301C13.4158 2.59162 11.8859 2.06345 10.303 2.00601L10 2.00001ZM10 3.00001C10.3978 3.00001 10.7794 3.15804 11.0607 3.43934C11.342 3.72065 11.5 4.10218 11.5 4.50001C11.5 4.89783 11.342 5.27936 11.0607 5.56067C10.7794 5.84197 10.3978 6.00001 10 6.00001C9.60218 6.00001 9.22064 5.84197 8.93934 5.56067C8.65804 5.27936 8.5 4.89783 8.5 4.50001C8.5 4.10218 8.65804 3.72065 8.93934 3.43934C9.22064 3.15804 9.60218 3.00001 10 3.00001Z" fill="white"/>
</svg>
