<svg width="16" height="15" viewBox="0 0 16 15" fill="none" xmlns="http://www.w3.org/2000/svg">
<path d="M12.093 0.25L14.7502 0.25225L14.7517 2.8945L10.6515 6.994L12.7725 9.11575L13.8337 8.05525L14.8942 9.11575L13.0387 10.972L15.1597 13.0938L14.0992 14.1542L11.9775 12.0325L10.1212 13.8888L9.06073 12.8282L10.1212 11.767L7.99948 9.646L5.87848 11.767L6.93973 12.8282L5.87923 13.8888L4.02298 12.0325L1.90123 14.1542L0.840729 13.0938L2.96248 10.9713L1.10623 9.11575L2.16673 8.05525L3.22723 9.115L5.34748 6.994L1.25248 2.899L1.25023 0.25L3.90973 0.25225L7.99948 4.34275L12.093 0.25ZM6.40798 8.0545L4.28773 10.1755L4.81873 10.7057L6.93898 8.58475L6.40873 8.0545H6.40798ZM13.251 1.75075H12.7132L9.06073 5.4025L9.59023 5.93275L13.251 2.2735V1.75075ZM2.75098 1.75075V2.27575L11.1817 10.7065L11.712 10.1763L3.28723 1.7515L2.75098 1.75075Z" fill="white"/>
</svg>
