<svg width="14" height="17" viewBox="0 0 14 17" fill="none" xmlns="http://www.w3.org/2000/svg">
<path d="M1 0.5H13C13.1989 0.5 13.3897 0.579018 13.5303 0.71967C13.671 0.860322 13.75 1.05109 13.75 1.25V15.707C13.7501 15.7696 13.7345 15.8312 13.7046 15.8862C13.6748 15.9412 13.6317 15.9878 13.5792 16.0219C13.5267 16.056 13.4665 16.0764 13.4041 16.0812C13.3417 16.0861 13.2791 16.0753 13.222 16.0497L7 13.2725L0.778 16.049C0.720927 16.0745 0.658384 16.0853 0.596058 16.0805C0.533731 16.0757 0.4736 16.0554 0.421132 16.0214C0.368665 15.9874 0.325525 15.9408 0.295637 15.8859C0.265749 15.831 0.250061 15.7695 0.25 15.707V1.25C0.25 1.05109 0.329018 0.860322 0.46967 0.71967C0.610322 0.579018 0.801088 0.5 1 0.5ZM12.25 13.9737V2H1.75V13.9737L7 11.6307L12.25 13.9737ZM7 9.125L4.79575 10.2837L5.2165 7.82975L3.43375 6.09125L5.89825 5.73275L7 3.5L8.1025 5.73275L10.5662 6.09125L8.7835 7.82975L9.2035 10.2837L7 9.125Z" fill="white"/>
</svg>
