<svg width="15" height="16" viewBox="0 0 15 16" fill="none" xmlns="http://www.w3.org/2000/svg">
<path d="M10.375 0.5C11.469 0.5 12.5182 0.934597 13.2918 1.70818C14.0654 2.48177 14.5 3.53098 14.5 4.625V6.5C14.5 7.166 14.2105 7.7645 13.75 8.17625V11.75C13.75 12.2153 13.6057 12.6692 13.3371 13.0492C13.0685 13.4292 12.6887 13.7165 12.25 13.8718V14.75C12.25 14.9489 12.171 15.1397 12.0303 15.2803C11.8897 15.421 11.6989 15.5 11.5 15.5H2.5C2.30109 15.5 2.11032 15.421 1.96967 15.2803C1.82902 15.1397 1.75 14.9489 1.75 14.75V13.8725C1.31119 13.7172 0.931316 13.4298 0.66268 13.0496C0.394044 12.6695 0.249866 12.2155 0.25 11.75V3.5C0.25 2.70435 0.56607 1.94129 1.12868 1.37868C1.69129 0.816071 2.45435 0.5 3.25 0.5H10.375ZM5.125 7.25H1.75V11.75C1.75002 11.9337 1.81747 12.111 1.93954 12.2483C2.06161 12.3856 2.22981 12.4733 2.41225 12.4948L2.5 12.5H11.5C11.6837 12.5 11.861 12.4325 11.9983 12.3105C12.1356 12.1884 12.2233 12.0202 12.2448 11.8378L12.25 11.75V8.75H7.723C7.63283 9.37473 7.32056 9.94606 6.84342 10.3593C6.36628 10.7725 5.75621 11 5.125 11H2.5V9.5H5.125C5.40466 9.49999 5.67429 9.39581 5.88131 9.20779C6.08834 9.01976 6.2179 8.76137 6.24475 8.483L6.25 8.375C6.24999 8.09534 6.14581 7.82571 5.95779 7.61869C5.76976 7.41166 5.51137 7.2821 5.233 7.25525L5.125 7.25ZM10.375 2H3.25C2.87157 1.99988 2.50708 2.1428 2.22959 2.40012C1.9521 2.65744 1.78213 3.01013 1.75375 3.3875L1.75 3.5V5.75H5.125C5.62184 5.7499 6.1085 5.8908 6.52843 6.15633C6.94837 6.42185 7.28432 6.8011 7.49725 7.25H12.25C12.4337 7.24998 12.611 7.18253 12.7483 7.06046C12.8856 6.93839 12.9733 6.77019 12.9948 6.58775L13 6.5V4.625C13.0001 3.9537 12.7429 3.30789 12.2815 2.82035C11.82 2.3328 11.1893 2.04058 10.519 2.00375L10.375 2Z" fill="white"/>
</svg>
