<svg width="118" height="114" viewBox="0 0 118 114" fill="none" xmlns="http://www.w3.org/2000/svg">
<path d="M92.1967 0.25L113.75 0.26825L113.762 21.6998L80.5045 54.9513L97.7082 72.1611L106.316 63.5592L114.918 72.1611L99.8678 87.2173L117.071 104.427L108.47 113.029L91.2599 95.8192L76.2036 110.875L67.6018 102.274L76.2036 93.6657L58.9939 76.462L41.7902 93.6657L50.3981 102.274L41.7963 110.875L26.74 95.8192L9.5303 113.029L0.928467 104.427L18.1382 87.2113L3.08197 72.1611L11.6838 63.5592L20.2856 72.155L37.4832 54.9513L4.26822 21.7363L4.24997 0.25L25.8215 0.26825L58.9939 33.4467L92.1967 0.25ZM46.085 63.5532L28.8875 80.7568L33.1945 85.0578L50.392 67.8541L46.0911 63.5532H46.085ZM101.589 12.4227H97.2276L67.6018 42.0425L71.8966 46.3434L101.589 16.6628V12.4227V12.4227ZM16.4227 12.4227V16.6811L84.8055 85.0638L89.1064 80.7629L20.7723 12.4288L16.4227 12.4227V12.4227Z" fill="white"/>
</svg>
