<svg width="18" height="17" viewBox="0 0 18 17" fill="none" xmlns="http://www.w3.org/2000/svg">
<path d="M0.667007 4.00001C0.667007 3.54 1.04617 3.16667 1.49367 3.16667H16.507C16.9637 3.16667 17.3337 3.5375 17.3337 4.00001V15.6667C17.3337 16.1267 16.9545 16.5 16.507 16.5H1.49367C1.38461 16.4998 1.27667 16.478 1.17604 16.436C1.07541 16.394 0.984065 16.3325 0.907258 16.255C0.830451 16.1776 0.76969 16.0858 0.728461 15.9848C0.687233 15.8838 0.666349 15.7757 0.667007 15.6667V4.00001ZM10.667 14C11.7721 14 12.8319 13.561 13.6133 12.7796C14.3947 11.9982 14.8337 10.9384 14.8337 9.83334C14.8337 8.72827 14.3947 7.66846 13.6133 6.88706C12.8319 6.10566 11.7721 5.66667 10.667 5.66667C9.56194 5.66667 8.50213 6.10566 7.72073 6.88706C6.93933 7.66846 6.50034 8.72827 6.50034 9.83334C6.50034 10.9384 6.93933 11.9982 7.72073 12.7796C8.50213 13.561 9.56194 14 10.667 14ZM2.33367 4.83334V6.5H4.83367V4.83334H2.33367ZM2.33367 0.666672H7.33367V2.33334H2.33367V0.666672Z" fill="white"/>
</svg>
