<svg width="16" height="12" viewBox="0 0 16 12" fill="none" xmlns="http://www.w3.org/2000/svg">
<path d="M8 0.666626C12.05 0.666626 15.3333 2.45729 15.3333 4.66663V7.33329C15.3333 9.54263 12.05 11.3333 8 11.3333C4.022 11.3333 0.784005 9.60596 0.670005 7.45129L0.666672 7.33329V4.66663C0.666672 2.45729 3.95001 0.666626 8 0.666626ZM8 8.66663C5.52 8.66663 3.32667 7.99529 2.00001 6.96663V7.33329C2.00001 8.58796 4.58867 9.99996 8 9.99996C11.34 9.99996 13.892 8.64663 13.9967 7.41196L14 7.33329L14.0007 6.96663C12.674 7.99463 10.4807 8.66663 8 8.66663ZM8 1.99996C4.58867 1.99996 2.00001 3.41196 2.00001 4.66663C2.00001 5.92129 4.58867 7.33329 8 7.33329C11.4113 7.33329 14 5.92129 14 4.66663C14 3.41196 11.4113 1.99996 8 1.99996Z" fill="#FFB156"/>
</svg>
