<svg width="20" height="20" viewBox="0 0 20 20" fill="none" xmlns="http://www.w3.org/2000/svg">
<path d="M2.92901 17.071C1.99904 16.1434 1.26154 15.0413 0.758889 13.8278C0.256234 12.6143 -0.00166634 11.3135 8.1015e-06 10C8.1015e-06 4.477 4.47701 0 10 0C15.523 0 20 4.477 20 10C20 15.523 15.523 20 10 20H8.1015e-06L2.92901 17.071ZM6.00001 11C6.00001 12.0609 6.42144 13.0783 7.17158 13.8284C7.92173 14.5786 8.93914 15 10 15C11.0609 15 12.0783 14.5786 12.8284 13.8284C13.5786 13.0783 14 12.0609 14 11H6.00001Z" fill="#FFBB3D"/>
</svg>
