<svg width="18" height="17" viewBox="0 0 18 17" fill="none" xmlns="http://www.w3.org/2000/svg">
<path d="M1.3334 3.3333L4.8334 5.66663L8.32173 0.7833C8.39882 0.675275 8.50059 0.587221 8.61858 0.526469C8.73657 0.465716 8.86736 0.434021 9.00007 0.434021C9.13278 0.434021 9.26357 0.465716 9.38156 0.526469C9.49954 0.587221 9.60131 0.675275 9.6784 0.7833L13.1667 5.66663L16.6667 3.3333C16.7992 3.24517 16.9541 3.19681 17.1132 3.19391C17.2723 3.19102 17.4288 3.23373 17.5644 3.31698C17.7 3.40024 17.8089 3.52057 17.8783 3.66375C17.9476 3.80692 17.9746 3.96697 17.9559 4.12497L16.5867 15.7641C16.5629 15.9668 16.4654 16.1537 16.3129 16.2894C16.1603 16.425 15.9633 16.4999 15.7592 16.5H2.2409C2.03679 16.4999 1.83979 16.425 1.68726 16.2894C1.53473 16.1537 1.43728 15.9668 1.4134 15.7641L0.0442339 4.12413C0.0257339 3.9662 0.0528049 3.80628 0.122251 3.66323C0.191697 3.52019 0.30062 3.4 0.43616 3.31685C0.5717 3.2337 0.728199 3.19107 0.887183 3.19399C1.04617 3.1969 1.201 3.24524 1.3334 3.3333ZM9.00007 11.5C9.44209 11.5 9.86602 11.3244 10.1786 11.0118C10.4911 10.6993 10.6667 10.2753 10.6667 9.8333C10.6667 9.39127 10.4911 8.96735 10.1786 8.65479C9.86602 8.34223 9.44209 8.16663 9.00007 8.16663C8.55804 8.16663 8.13412 8.34223 7.82156 8.65479C7.509 8.96735 7.3334 9.39127 7.3334 9.8333C7.3334 10.2753 7.509 10.6993 7.82156 11.0118C8.13412 11.3244 8.55804 11.5 9.00007 11.5Z" fill="#FFA800"/>
</svg>
