<svg width="8" height="9" viewBox="0 0 8 9" fill="none" xmlns="http://www.w3.org/2000/svg">
<path d="M1.08333 5.66667V8.16667H0.25V0.25H4.15917C4.23653 0.250041 4.31235 0.271618 4.37814 0.312313C4.44393 0.353009 4.49709 0.411216 4.53167 0.480417L4.83333 1.08333H7.33333C7.44384 1.08333 7.54982 1.12723 7.62796 1.20537C7.7061 1.28351 7.75 1.38949 7.75 1.5V6.08333C7.75 6.19384 7.7061 6.29982 7.62796 6.37796C7.54982 6.4561 7.44384 6.5 7.33333 6.5H4.67417C4.59681 6.49996 4.52099 6.47838 4.4552 6.43769C4.38941 6.39699 4.33625 6.33878 4.30167 6.26958L4 5.66667H1.08333ZM1.08333 1.08333V4.83333H4.515L4.93167 5.66667H6.91667V1.91667H4.31833L3.90167 1.08333H1.08333Z" fill="#FB9191"/>
</svg>
