<svg width="12" height="11" viewBox="0 0 12 11" fill="none" xmlns="http://www.w3.org/2000/svg">
<path d="M4.7 7H1.5C1.23478 7 0.98043 6.89464 0.792894 6.70711C0.605357 6.51957 0.500001 6.26522 0.500001 6V4.948C0.499866 4.81732 0.525346 4.68788 0.575001 4.567L2.123 0.81C2.16064 0.718376 2.22465 0.639998 2.3069 0.584806C2.38915 0.529615 2.48595 0.500098 2.585 0.5H11C11.1326 0.5 11.2598 0.552678 11.3536 0.646447C11.4473 0.740215 11.5 0.867392 11.5 1V6C11.5 6.13261 11.4473 6.25979 11.3536 6.35355C11.2598 6.44732 11.1326 6.5 11 6.5H9.259C9.17895 6.49998 9.10007 6.51918 9.02898 6.55598C8.9579 6.59279 8.89669 6.64612 8.8505 6.7115L6.124 10.5745C6.08953 10.6233 6.03871 10.6582 5.98073 10.6728C5.92276 10.6874 5.86148 10.6807 5.808 10.654L4.901 10.2C4.64575 10.0724 4.44183 9.86134 4.32313 9.60184C4.20444 9.34234 4.1781 9.05004 4.2485 8.7735L4.7 7ZM8.5 5.706V1.5H2.92L1.5 4.948V6H4.7C4.8523 6.00002 5.00258 6.03483 5.13939 6.10177C5.27619 6.16871 5.39589 6.26601 5.48936 6.38626C5.58284 6.5065 5.64761 6.6465 5.67874 6.79559C5.70987 6.94467 5.70654 7.0989 5.669 7.2465L5.2175 9.0205C5.20337 9.07584 5.20861 9.13434 5.23235 9.18629C5.2561 9.23823 5.29691 9.28048 5.348 9.306L5.6785 9.471L8.0335 6.135C8.1585 5.958 8.3185 5.813 8.5 5.706ZM9.5 5.5H10.5V1.5H9.5V5.5Z" fill="#6A6E77"/>
</svg>
