<svg width="12" height="15" viewBox="0 0 12 15" fill="none" xmlns="http://www.w3.org/2000/svg">
<path d="M0.666667 0.333328H11.3333C11.5101 0.333328 11.6797 0.403566 11.8047 0.52859C11.9298 0.653615 12 0.823184 12 0.999995V13.8507C12.0001 13.9063 11.9862 13.961 11.9597 14.0099C11.9332 14.0588 11.8948 14.1003 11.8482 14.1306C11.8015 14.1609 11.748 14.179 11.6926 14.1833C11.6371 14.1876 11.5814 14.178 11.5307 14.1553L6 11.6867L0.469333 14.1547C0.418602 14.1773 0.363008 14.187 0.307607 14.1827C0.252206 14.1784 0.198756 14.1603 0.152118 14.1301C0.10548 14.0999 0.0671335 14.0585 0.0405664 14.0097C0.0139994 13.9609 5.45506e-05 13.9062 0 13.8507V0.999995C0 0.823184 0.0702379 0.653615 0.195262 0.52859C0.320286 0.403566 0.489856 0.333328 0.666667 0.333328ZM10.6667 12.31V1.66666H1.33333V12.31L6 10.2273L10.6667 12.31ZM6 7.99999L4.04067 9.02999L4.41467 6.84866L2.83 5.30333L5.02067 4.98466L6 2.99999L6.98 4.98466L9.17 5.30333L7.58533 6.84866L7.95867 9.02999L6 7.99999Z" fill="#FFBB3D"/>
</svg>
