<svg width="16" height="15" viewBox="0 0 16 15" fill="none" xmlns="http://www.w3.org/2000/svg">
<path d="M6.59414 6.63833L13.2108 0.0216675L14.9783 1.78917L13.8 2.9675L15.5675 4.735L12.6216 7.68167L10.8541 5.91417L8.36247 8.40583C8.82127 9.28858 8.94922 10.3063 8.7232 11.2751C8.49718 12.244 7.9321 13.1 7.13005 13.6886C6.328 14.2773 5.34188 14.5596 4.34986 14.4846C3.35783 14.4097 2.42532 13.9824 1.7208 13.28C1.01593 12.5763 0.586479 11.6433 0.510267 10.6502C0.434056 9.65705 0.716128 8.66949 1.30537 7.86644C1.89461 7.06338 2.75203 6.49798 3.72226 6.27268C4.69248 6.04739 5.71132 6.17711 6.59414 6.63833ZM5.84497 11.5117C6.00415 11.3579 6.13112 11.174 6.21847 10.9707C6.30582 10.7673 6.3518 10.5486 6.35372 10.3273C6.35564 10.106 6.31347 9.88657 6.22967 9.68174C6.14587 9.47692 6.02212 9.29083 5.86563 9.13434C5.70914 8.97785 5.52305 8.8541 5.31823 8.7703C5.1134 8.6865 4.89393 8.64433 4.67263 8.64625C4.45133 8.64817 4.23263 8.69415 4.02929 8.7815C3.82595 8.86885 3.64205 8.99582 3.4883 9.155C3.18471 9.46934 3.01671 9.89034 3.02051 10.3273C3.02431 10.7643 3.19959 11.1824 3.5086 11.4914C3.81762 11.8004 4.23564 11.9757 4.67263 11.9795C5.10963 11.9833 5.53063 11.8153 5.84497 11.5117Z" fill="white"/>
</svg>
