<svg width="12" height="11" viewBox="0 0 12 11" fill="none" xmlns="http://www.w3.org/2000/svg">
<path d="M7.3 3.99999H10.5C10.7652 3.99999 11.0196 4.10534 11.2071 4.29288C11.3946 4.48042 11.5 4.73477 11.5 4.99999V6.05199C11.5001 6.18267 11.4747 6.31211 11.425 6.43299L9.8775 10.1905C9.83975 10.2821 9.77563 10.3604 9.69329 10.4155C9.61094 10.4706 9.51408 10.5 9.415 10.5H1C0.867392 10.5 0.740215 10.4473 0.646447 10.3535C0.552678 10.2598 0.5 10.1326 0.5 9.99999V4.99999C0.5 4.86738 0.552678 4.7402 0.646447 4.64643C0.740215 4.55267 0.867392 4.49999 1 4.49999H2.741C2.82105 4.50001 2.89993 4.48081 2.97102 4.444C3.0421 4.4072 3.10331 4.35387 3.1495 4.28849L5.876 0.424987C5.91047 0.376144 5.9613 0.341267 6.01927 0.326682C6.07724 0.312097 6.13852 0.318769 6.192 0.345487L7.099 0.798987C7.35425 0.926568 7.55817 1.13764 7.67687 1.39714C7.79556 1.65665 7.8219 1.94895 7.7515 2.22549L7.3 3.99999ZM3.5 5.29399V9.49999H9.08L10.5 6.05199V4.99999H7.3C7.1477 4.99997 6.99742 4.96516 6.86061 4.89822C6.72381 4.83128 6.60411 4.73397 6.51064 4.61373C6.41716 4.49349 6.35239 4.35348 6.32126 4.2044C6.29013 4.05531 6.29346 3.90109 6.331 3.75349L6.7825 1.97949C6.79663 1.92415 6.79139 1.86564 6.76765 1.8137C6.7439 1.76176 6.70309 1.71951 6.652 1.69399L6.3215 1.52899L3.9665 4.86499C3.8415 5.04199 3.6815 5.18699 3.5 5.29399ZM2.5 5.49999H1.5V9.49999H2.5V5.49999Z" fill="#6BE795"/>
</svg>
