<svg width="10" height="10" viewBox="0 0 10 10" fill="none" xmlns="http://www.w3.org/2000/svg">
<path d="M4.99992 4.58333C5.55245 4.58333 6.08236 4.80283 6.47306 5.19353C6.86376 5.58423 7.08325 6.11413 7.08325 6.66667V9.16667H6.24992V6.66667C6.24994 6.34783 6.12812 6.04104 5.90938 5.80906C5.69065 5.57708 5.39154 5.43746 5.07325 5.41875L4.99992 5.41667C4.68108 5.41665 4.37429 5.53847 4.14231 5.7572C3.91033 5.97593 3.77071 6.27505 3.752 6.59333L3.74992 6.66667V9.16667H2.91659V6.66667C2.91659 6.11413 3.13608 5.58423 3.52678 5.19353C3.91748 4.80283 4.44738 4.58333 4.99992 4.58333ZM2.29159 5.83333C2.40784 5.83333 2.52075 5.84708 2.62909 5.8725C2.55785 6.08459 2.51566 6.30534 2.50367 6.52875L2.49992 6.66667V6.7025C2.45202 6.68536 2.40221 6.67417 2.35159 6.66917L2.29159 6.66667C2.13622 6.66668 1.98642 6.72455 1.87141 6.82901C1.7564 6.93347 1.68442 7.07702 1.6695 7.23167L1.66659 7.29167V9.16667H0.833252V7.29167C0.833252 6.90489 0.986897 6.53396 1.26039 6.26047C1.53388 5.98698 1.90481 5.83333 2.29159 5.83333ZM7.70825 5.83333C8.09503 5.83333 8.46596 5.98698 8.73945 6.26047C9.01294 6.53396 9.16659 6.90489 9.16659 7.29167V9.16667H8.33325V7.29167C8.33324 7.1363 8.27537 6.9865 8.17091 6.87149C8.06645 6.75648 7.9229 6.6845 7.76825 6.66958L7.70825 6.66667C7.63534 6.66667 7.56534 6.67917 7.49992 6.70208V6.66667C7.49992 6.38917 7.45492 6.1225 7.37117 5.87333C7.47909 5.84708 7.592 5.83333 7.70825 5.83333ZM2.29159 3.33333C2.56785 3.33333 2.8328 3.44308 3.02815 3.63843C3.22351 3.83378 3.33325 4.09873 3.33325 4.375C3.33325 4.65127 3.22351 4.91622 3.02815 5.11157C2.8328 5.30692 2.56785 5.41667 2.29159 5.41667C2.01532 5.41667 1.75037 5.30692 1.55502 5.11157C1.35967 4.91622 1.24992 4.65127 1.24992 4.375C1.24992 4.09873 1.35967 3.83378 1.55502 3.63843C1.75037 3.44308 2.01532 3.33333 2.29159 3.33333ZM7.70825 3.33333C7.98452 3.33333 8.24947 3.44308 8.44482 3.63843C8.64017 3.83378 8.74992 4.09873 8.74992 4.375C8.74992 4.65127 8.64017 4.91622 8.44482 5.11157C8.24947 5.30692 7.98452 5.41667 7.70825 5.41667C7.43198 5.41667 7.16703 5.30692 6.97168 5.11157C6.77633 4.91622 6.66659 4.65127 6.66659 4.375C6.66659 4.09873 6.77633 3.83378 6.97168 3.63843C7.16703 3.44308 7.43198 3.33333 7.70825 3.33333ZM2.29159 4.16667C2.23633 4.16667 2.18334 4.18862 2.14427 4.22769C2.1052 4.26676 2.08325 4.31975 2.08325 4.375C2.08325 4.43025 2.1052 4.48324 2.14427 4.52231C2.18334 4.56138 2.23633 4.58333 2.29159 4.58333C2.34684 4.58333 2.39983 4.56138 2.4389 4.52231C2.47797 4.48324 2.49992 4.43025 2.49992 4.375C2.49992 4.31975 2.47797 4.26676 2.4389 4.22769C2.39983 4.18862 2.34684 4.16667 2.29159 4.16667ZM7.70825 4.16667C7.653 4.16667 7.60001 4.18862 7.56094 4.22769C7.52187 4.26676 7.49992 4.31975 7.49992 4.375C7.49992 4.43025 7.52187 4.48324 7.56094 4.52231C7.60001 4.56138 7.653 4.58333 7.70825 4.58333C7.76351 4.58333 7.8165 4.56138 7.85557 4.52231C7.89464 4.48324 7.91659 4.43025 7.91659 4.375C7.91659 4.31975 7.89464 4.26676 7.85557 4.22769C7.8165 4.18862 7.76351 4.16667 7.70825 4.16667ZM4.99992 0.833334C5.44195 0.833334 5.86587 1.00893 6.17843 1.32149C6.49099 1.63405 6.66659 2.05797 6.66659 2.5C6.66659 2.94203 6.49099 3.36595 6.17843 3.67851C5.86587 3.99107 5.44195 4.16667 4.99992 4.16667C4.55789 4.16667 4.13397 3.99107 3.82141 3.67851C3.50885 3.36595 3.33325 2.94203 3.33325 2.5C3.33325 2.05797 3.50885 1.63405 3.82141 1.32149C4.13397 1.00893 4.55789 0.833334 4.99992 0.833334ZM4.99992 1.66667C4.77891 1.66667 4.56694 1.75446 4.41066 1.91075C4.25438 2.06703 4.16659 2.27899 4.16659 2.5C4.16659 2.72101 4.25438 2.93298 4.41066 3.08926C4.56694 3.24554 4.77891 3.33333 4.99992 3.33333C5.22093 3.33333 5.43289 3.24554 5.58917 3.08926C5.74545 2.93298 5.83325 2.72101 5.83325 2.5C5.83325 2.27899 5.74545 2.06703 5.58917 1.91075C5.43289 1.75446 5.22093 1.66667 4.99992 1.66667Z" fill="white"/>
</svg>
