<svg width="8" height="8" viewBox="0 0 8 8" fill="none" xmlns="http://www.w3.org/2000/svg">
<path d="M6.29167 7.75C5.90489 7.75 5.53396 7.59635 5.26047 7.32286C4.98698 7.04937 4.83333 6.67844 4.83333 6.29167C4.83333 5.90489 4.98698 5.53396 5.26047 5.26047C5.53396 4.98698 5.90489 4.83333 6.29167 4.83333C6.67844 4.83333 7.04937 4.98698 7.32286 5.26047C7.59635 5.53396 7.75 5.90489 7.75 6.29167C7.75 6.67844 7.59635 7.04937 7.32286 7.32286C7.04937 7.59635 6.67844 7.75 6.29167 7.75ZM6.29167 6.91667C6.45743 6.91667 6.6164 6.85082 6.73361 6.73361C6.85082 6.6164 6.91667 6.45743 6.91667 6.29167C6.91667 6.12591 6.85082 5.96694 6.73361 5.84973C6.6164 5.73251 6.45743 5.66667 6.29167 5.66667C6.12591 5.66667 5.96694 5.73251 5.84973 5.84973C5.73251 5.96694 5.66667 6.12591 5.66667 6.29167C5.66667 6.45743 5.73251 6.6164 5.84973 6.73361C5.96694 6.85082 6.12591 6.91667 6.29167 6.91667ZM1.70833 3.16667C1.51682 3.16667 1.32719 3.12895 1.15025 3.05566C0.97332 2.98237 0.812555 2.87495 0.677136 2.73953C0.541717 2.60411 0.434297 2.44335 0.361009 2.26641C0.287721 2.08948 0.25 1.89984 0.25 1.70833C0.25 1.51682 0.287721 1.32719 0.361009 1.15025C0.434297 0.97332 0.541717 0.812555 0.677136 0.677136C0.812555 0.541717 0.97332 0.434297 1.15025 0.361009C1.32719 0.287721 1.51682 0.25 1.70833 0.25C2.09511 0.25 2.46604 0.403645 2.73953 0.677136C3.01302 0.950627 3.16667 1.32156 3.16667 1.70833C3.16667 2.09511 3.01302 2.46604 2.73953 2.73953C2.46604 3.01302 2.09511 3.16667 1.70833 3.16667ZM1.70833 2.33333C1.87409 2.33333 2.03306 2.26749 2.15028 2.15028C2.26749 2.03306 2.33333 1.87409 2.33333 1.70833C2.33333 1.54257 2.26749 1.3836 2.15028 1.26639C2.03306 1.14918 1.87409 1.08333 1.70833 1.08333C1.54257 1.08333 1.3836 1.14918 1.26639 1.26639C1.14918 1.3836 1.08333 1.54257 1.08333 1.70833C1.08333 1.87409 1.14918 2.03306 1.26639 2.15028C1.3836 2.26749 1.54257 2.33333 1.70833 2.33333ZM6.94625 0.464583L7.53542 1.05375L1.05417 7.53542L0.465 6.94625L6.94583 0.464583H6.94625Z" fill="#00A3FF"/>
</svg>
