<svg width="18" height="13" viewBox="0 0 18 13" fill="none" xmlns="http://www.w3.org/2000/svg">
<path d="M8.78565 4.52733H8.87053C9.28578 4.52733 9.62357 4.20902 9.62357 3.8178V2.87401H8.03262V3.8178C8.03262 4.20902 8.37044 4.52733 8.78565 4.52733Z" fill="#E4E4E4"/>
<path d="M16.1655 7.3369H1.48198L1.48371 7.33902V8.47169H16.154V7.35086L16.1655 7.3369Z" fill="#E4E4E4"/>
<path d="M16.9751 6.34835L17.6429 5.53298L17.0104 3.02516L8.82811 0L0.648399 3.02422L0 5.50455L0.682456 6.34835H16.9751ZM10.6728 3.8178C10.6728 4.75414 9.86429 5.5159 8.87053 5.5159H8.78565C7.79189 5.5159 6.98342 4.75414 6.98342 3.8178V1.88543H10.6727L10.6728 3.8178Z" fill="#E4E4E4"/>
<path d="M0.575703 9.46027C0.492973 9.66114 0.478323 9.88043 0.537931 10.0916C0.805143 11.0383 1.48496 11.8538 2.45216 12.3879C3.41919 12.9219 4.57778 13.1155 5.71439 12.9331L7.57825 12.6339C8.40356 12.5015 9.24047 12.5015 10.0658 12.6339L11.9296 12.9331C12.2087 12.9779 12.4888 13 12.7673 13C13.6234 13 14.4622 12.7908 15.1919 12.3879C16.1591 11.8539 16.8389 11.0383 17.1061 10.0916C17.1657 9.88043 17.1511 9.66114 17.0684 9.46027H0.575703Z" fill="#E4E4E4"/>
</svg>
