<svg width="17" height="17" viewBox="0 0 17 17" fill="none" xmlns="http://www.w3.org/2000/svg">
<path fill-rule="evenodd" clip-rule="evenodd" d="M8.335 16.67C12.9383 16.67 16.67 12.9383 16.67 8.335C16.67 3.73171 12.9383 0 8.335 0C3.73171 0 0 3.73171 0 8.335C0 12.9383 3.73171 16.67 8.335 16.67ZM10.1606 4.64102L10.7063 3.61008C9.63286 3.04179 8.39555 2.8633 7.20523 3.10502C6.01491 3.34673 4.94522 3.99369 4.17843 4.93567C3.41164 5.87765 2.9952 7.05636 3.00004 8.27096C3.00489 9.48557 3.43074 10.6609 4.20502 11.5967C4.97931 12.5326 6.05412 13.171 7.24633 13.4032C8.43855 13.6354 9.67439 13.447 10.7433 12.8702C11.8122 12.2933 12.648 11.3637 13.1083 10.2397C13.5687 9.11572 13.625 7.86688 13.2678 6.70598L12.1528 7.04911C12.4305 7.95204 12.3866 8.92336 12.0285 9.79756C11.6705 10.6718 11.0203 11.3948 10.1889 11.8434C9.35755 12.292 8.39633 12.4384 7.46907 12.2577C6.54181 12.0771 5.70587 11.5805 5.10369 10.8526C4.50151 10.1247 4.17035 9.21055 4.16663 8.26586C4.16291 7.32117 4.48686 6.40441 5.08328 5.67179C5.67971 4.93918 6.51171 4.43603 7.43752 4.24807C8.36333 4.06012 9.32567 4.19899 10.1606 4.64102Z" fill="#FF7A00"/>
</svg>
