<svg width="13" height="17" viewBox="0 0 13 17" fill="none" xmlns="http://www.w3.org/2000/svg">
<path d="M5.37241 5.5925L3.99991 6.092V8.75H2.49991V5.0375H2.51116L6.46216 3.599C6.64516 3.52925 6.84466 3.494 7.04866 3.50075C7.45629 3.51092 7.85063 3.64783 8.17685 3.89246C8.50307 4.13709 8.74497 4.47729 8.86891 4.86575C9.00841 5.303 9.13591 5.5985 9.25141 5.75225C9.60048 6.21771 10.0532 6.59542 10.5737 6.85541C11.0942 7.11539 11.6681 7.25049 12.2499 7.25V8.75C11.4754 8.75084 10.7103 8.57996 10.0097 8.24965C9.30918 7.91934 8.69056 7.43782 8.19841 6.83975L7.67566 9.80675L9.24991 11.1275V16.25H7.74991V11.8265L6.04741 10.3985L5.50216 13.4938L0.331665 12.5825L0.592665 11.105L4.28566 11.756L5.37241 5.5925ZM8.12491 3.125C7.72709 3.125 7.34556 2.96696 7.06425 2.68566C6.78295 2.40436 6.62491 2.02282 6.62491 1.625C6.62491 1.22718 6.78295 0.845644 7.06425 0.56434C7.34556 0.283035 7.72709 0.125 8.12491 0.125C8.52274 0.125 8.90427 0.283035 9.18557 0.56434C9.46688 0.845644 9.62491 1.22718 9.62491 1.625C9.62491 2.02282 9.46688 2.40436 9.18557 2.68566C8.90427 2.96696 8.52274 3.125 8.12491 3.125Z" fill="white"/>
</svg>
