<svg width="18" height="18" viewBox="0 0 18 18" fill="none" xmlns="http://www.w3.org/2000/svg">
<path d="M14.9535 6H15.75C16.1478 6 16.5294 6.15804 16.8107 6.43934C17.092 6.72065 17.25 7.10218 17.25 7.5V10.5C17.25 10.8978 17.092 11.2794 16.8107 11.5607C16.5294 11.842 16.1478 12 15.75 12H14.9535C14.7707 13.45 14.0649 14.7834 12.9688 15.75C11.8727 16.7166 10.4615 17.25 9 17.25V15.75C10.1935 15.75 11.3381 15.2759 12.182 14.432C13.0259 13.5881 13.5 12.4435 13.5 11.25V6.75C13.5 5.55653 13.0259 4.41193 12.182 3.56802C11.3381 2.72411 10.1935 2.25 9 2.25C7.80653 2.25 6.66193 2.72411 5.81802 3.56802C4.97411 4.41193 4.5 5.55653 4.5 6.75V12H2.25C1.85218 12 1.47064 11.842 1.18934 11.5607C0.908035 11.2794 0.75 10.8978 0.75 10.5V7.5C0.75 7.10218 0.908035 6.72065 1.18934 6.43934C1.47064 6.15804 1.85218 6 2.25 6H3.0465C3.22952 4.55017 3.93531 3.21696 5.03143 2.25051C6.12755 1.28406 7.53866 0.750809 9 0.750809C10.4613 0.750809 11.8724 1.28406 12.9686 2.25051C14.0647 3.21696 14.7705 4.55017 14.9535 6ZM2.25 7.5V10.5H3V7.5H2.25ZM15 7.5V10.5H15.75V7.5H15ZM5.82 11.8388L6.615 10.5668C7.32981 11.0145 8.15652 11.2514 9 11.25C9.84348 11.2514 10.6702 11.0145 11.385 10.5668L12.18 11.8388C11.2269 12.4359 10.1247 12.7517 9 12.75C7.87534 12.7517 6.77306 12.4359 5.82 11.8388Z" fill="white"/>
</svg>
