<svg
      width="1em"
      height="1em"
      viewBox="0 0 15 16"
      fill="none"
      xmlns="http://www.w3.org/2000/svg"
    >
      <path
        d="M10.375.5A4.125 4.125 0 0114.5 4.625V6.5c0 .666-.29 1.264-.75 1.676v3.574a2.25 2.25 0 01-1.5 2.122v.878a.75.75 0 01-.75.75h-9a.75.75 0 01-.75-.75v-.877a2.25 2.25 0 01-1.5-2.123V3.5a3 3 0 013-3h7.125zm-5.25 6.75H1.75v4.5a.75.75 0 00.662.745l.088.005h9a.75.75 0 00.745-.662l.005-.088v-3H7.723A2.625 2.625 0 015.125 11H2.5V9.5h2.625a1.125 1.125 0 001.12-1.017l.005-.108a1.125 1.125 0 00-1.017-1.12l-.108-.005zM10.375 2H3.25a1.5 1.5 0 00-1.496 1.388L1.75 3.5v2.25h3.375a2.625 2.625 0 012.372 1.5h4.753a.75.75 0 00.745-.662L13 6.5V4.625a2.625 2.625 0 00-2.481-2.621L10.375 2z"
        fill="#fff"
      />
    </svg>