<svg width="16" height="16" viewBox="0 0 16 16" fill="none" xmlns="http://www.w3.org/2000/svg">
<g clip-path="url(#clip0_854:7875)">
<path d="M3.54594 9.669L2.989 11.7481L0.953406 11.7912C0.345063 10.6628 0 9.37188 0 8C0 6.67341 0.322625 5.42241 0.8945 4.32088H0.894938L2.70719 4.65313L3.50106 6.4545C3.33491 6.93891 3.24434 7.45891 3.24434 8C3.24441 8.58725 3.35078 9.14991 3.54594 9.669Z" fill="#FBBB00"/>
<path d="M15.8601 6.5055C15.952 6.98944 15.9999 7.48922 15.9999 8C15.9999 8.57275 15.9397 9.13144 15.825 9.67034C15.4355 11.5042 14.4179 13.1055 13.0083 14.2387L13.0078 14.2383L10.7252 14.1218L10.4022 12.1051C11.3375 11.5565 12.0685 10.698 12.4536 9.67034H8.17578V6.5055H12.516H15.8601Z" fill="#518EF8"/>
<path d="M13.0079 14.2382L13.0083 14.2387C11.6373 15.3407 9.89577 16 7.99996 16C4.95337 16 2.30459 14.2972 0.953369 11.7912L3.5459 9.66903C4.22149 11.4721 5.96084 12.7556 7.99996 12.7556C8.87643 12.7556 9.69756 12.5187 10.4022 12.1051L13.0079 14.2382Z" fill="#28B446"/>
<path d="M13.1064 1.84175L10.5148 3.9635C9.78553 3.50769 8.92353 3.24437 8.00003 3.24437C5.91475 3.24437 4.14288 4.58678 3.50113 6.4545L0.894969 4.32088H0.894531C2.22597 1.75384 4.90816 0 8.00003 0C9.94112 0 11.7209 0.691437 13.1064 1.84175Z" fill="#F14336"/>
</g>
<defs>
<clipPath id="clip0_854:7875">
<rect width="16" height="16" fill="white"/>
</clipPath>
</defs>
</svg>
